<svg xmlns="http://www.w3.org/2000/svg" xml:space="preserve" class="text-logo_textLogo__28QzR" width="164px"
     height="22px" version="1.1"
     viewBox="0 0 235.369 32.058"><path fill="#4cae4f" d="M16.339 32.058c-2.48,0 -4.716,-0.398 -6.708,-1.195 -1.993,-0.797 -3.712,-1.919 -5.159,-3.365 -1.446,-1.447 -2.553,-3.144 -3.321,-5.093 -0.767,-1.948 -1.151,-4.073 -1.151,-6.376 0,-2.302 0.413,-4.428 1.24,-6.376 0.827,-1.948 1.985,-3.646 3.476,-5.092 1.491,-1.446 3.262,-2.568 5.313,-3.365 2.052,-0.797 4.303,-1.196 6.753,-1.196 1.682,0 3.284,0.222 4.804,0.664 1.52,0.443 2.908,1.048 4.162,1.816 1.255,0.767 2.296,1.638 3.122,2.612l-4.649 4.871c-1.063,-1.004 -2.207,-1.793 -3.432,-2.369 -1.225,-0.576 -2.605,-0.864 -4.14,-0.864 -1.269,0 -2.443,0.229 -3.52,0.687 -1.078,0.457 -2.022,1.107 -2.834,1.948 -0.812,0.842 -1.439,1.83 -1.882,2.967 -0.443,1.136 -0.664,2.369 -0.664,3.697 0,1.329 0.236,2.554 0.708,3.675 0.473,1.122 1.13,2.104 1.971,2.945 0.841,0.841 1.823,1.498 2.944,1.97 1.122,0.473 2.332,0.709 3.631,0.709 0.915,0 1.764,-0.14 2.546,-0.421 0.783,-0.28 1.476,-0.664 2.081,-1.151 0.605,-0.487 1.078,-1.063 1.418,-1.727 0.339,-0.664 0.509,-1.38 0.509,-2.148l0 -1.151 0.974 1.506 -8.458 0 0 -5.978 14.568 0c0.059,0.325 0.104,0.767 0.133,1.328 0.03,0.561 0.052,1.1 0.067,1.616 0.014,0.517 0.022,0.923 0.022,1.218 0,2.008 -0.362,3.845 -1.085,5.513 -0.723,1.668 -1.742,3.107 -3.056,4.317 -1.313,1.21 -2.856,2.148 -4.627,2.812 -1.771,0.664 -3.69,0.996 -5.756,0.996zm17.366 -0.443l0 -30.995 14.037 0c2.007,0 3.808,0.428 5.402,1.284 1.594,0.856 2.856,2.029 3.785,3.52 0.93,1.491 1.395,3.196 1.395,5.114 0,1.949 -0.465,3.691 -1.395,5.226 -0.929,1.534 -2.191,2.752 -3.785,3.652 -1.594,0.901 -3.395,1.351 -5.402,1.351l-6.82 0 0 10.848 -7.217 0zm17.225 0l-7.882 -14.036 7.749 -1.107 8.767 15.188 -8.634 -0.045zm-10.008 -16.737l6.155 0c0.768,0 1.44,-0.17 2.015,-0.509 0.576,-0.34 1.019,-0.805 1.328,-1.395 0.31,-0.59 0.465,-1.27 0.465,-2.037 0,-0.797 -0.184,-1.491 -0.553,-2.081 -0.369,-0.591 -0.886,-1.055 -1.55,-1.395 -0.664,-0.339 -1.454,-0.509 -2.369,-0.509l-5.491 0 0 7.926zm21.131 16.737l0 -30.995 21.607 0 0 6.465 -14.213 0 0 18.066 14.7 0 0 6.464 -22.094 0zm3.586 -12.663l0 -6.2 16.073 0 0 6.2 -16.073 0zm22.148 12.663l0 -30.995 21.608 0 0 6.465 -14.213 0 0 18.066 14.7 0 0 6.464 -22.095 0zm3.587 -12.663l0 -6.2 16.073 0 0 6.2 -16.073 0zm22.148 12.663l0 -30.995 6.775 0 16.295 22.095 -1.462 -0.177c-0.206,-1.653 -0.383,-3.195 -0.531,-4.627 -0.148,-1.432 -0.243,-2.93 -0.288,-4.494 -0.044,-1.565 -0.066,-3.366 -0.066,-5.402l0 -7.395 7.35 0 0 30.995 -6.863 0 -16.915 -22.759 2.17 0.31c0.206,1.801 0.369,3.291 0.487,4.472 0.118,1.181 0.207,2.192 0.266,3.033 0.059,0.842 0.103,1.624 0.132,2.347 0.03,0.723 0.045,1.528 0.045,2.413l0 10.184 -7.395 0zm31.403 -9.475l0 -6.509 15.232 0 0 6.509 -15.232 0zm14.621 9.475l12.265 -30.995 6.42 0 12.177 30.995 -7.616 0 -5.889 -15.719c-0.207,-0.619 -0.436,-1.284 -0.686,-1.992 -0.251,-0.709 -0.495,-1.447 -0.731,-2.214 -0.236,-0.768 -0.457,-1.506 -0.664,-2.214 -0.207,-0.709 -0.384,-1.373 -0.532,-1.993l1.285 -0.044c-0.178,0.738 -0.37,1.461 -0.576,2.17 -0.207,0.708 -0.428,1.417 -0.664,2.125 -0.236,0.709 -0.48,1.41 -0.731,2.103 -0.251,0.694 -0.509,1.41 -0.775,2.148l-5.845 15.63 -7.438 0zm5.844 -5.933l2.392 -5.756 14.169 0 2.391 5.756 -18.952 0zm26.045 5.933l0 -30.995 13.417 0c1.948,0 3.69,0.443 5.225,1.329 1.535,0.885 2.745,2.088 3.631,3.608 0.885,1.52 1.328,3.255 1.328,5.203 0,1.978 -0.443,3.764 -1.328,5.358 -0.886,1.594 -2.096,2.848 -3.631,3.763 -1.535,0.916 -3.277,1.373 -5.225,1.373l-5.845 0 0 10.361 -7.572 0zm7.483 -17.047l4.915 0c0.65,0 1.233,-0.155 1.749,-0.465 0.517,-0.31 0.938,-0.745 1.263,-1.306 0.324,-0.561 0.487,-1.196 0.487,-1.904 0,-0.738 -0.163,-1.373 -0.487,-1.904 -0.325,-0.532 -0.746,-0.945 -1.263,-1.24 -0.516,-0.295 -1.099,-0.443 -1.749,-0.443l-4.915 0 0 7.262zm18.429 17.047l0 -6.376 5.225 0 0 -18.243 -5.225 0 0 -6.376 18.022 0 0 6.376 -5.225 0 0 18.243 5.225 0 0 6.376 -18.022 0z"></path></svg>
